<?xml version="1.0" encoding="UTF-8"?>
<!DOCTYPE svg PUBLIC "-//W3C//DTD SVG 1.1//EN" "http://www.w3.org/Graphics/SVG/1.1/DTD/svg11.dtd">
<svg version="1.1" xmlns="http://www.w3.org/2000/svg" xmlns:xlink="http://www.w3.org/1999/xlink" x="0" y="0" width="576" height="576" viewBox="0, 0, 360, 360">
  <g id="graph">
    <path d="M48.57,46.216 L48.57,334.216" fill-opacity="0" stroke="#000000" stroke-width="1" stroke-opacity="0.5"/>
    <path d="M55.77,46.216 L55.77,334.216" fill-opacity="0" stroke="#000000" stroke-width="0.5" stroke-opacity="0.5"/>
    <path d="M62.97,46.216 L62.97,334.216" fill-opacity="0" stroke="#000000" stroke-width="0.5" stroke-opacity="0.5"/>
    <path d="M70.17,46.216 L70.17,334.216" fill-opacity="0" stroke="#000000" stroke-width="0.5" stroke-opacity="0.5"/>
    <path d="M77.37,46.216 L77.37,334.216" fill-opacity="0" stroke="#000000" stroke-width="0.5" stroke-opacity="0.5"/>
    <path d="M84.57,46.216 L84.57,334.216" fill-opacity="0" stroke="#000000" stroke-width="1" stroke-opacity="0.5"/>
    <path d="M91.77,46.216 L91.77,334.216" fill-opacity="0" stroke="#000000" stroke-width="0.5" stroke-opacity="0.5"/>
    <path d="M98.97,46.216 L98.97,334.216" fill-opacity="0" stroke="#000000" stroke-width="0.5" stroke-opacity="0.5"/>
    <path d="M106.17,46.216 L106.17,334.216" fill-opacity="0" stroke="#000000" stroke-width="0.5" stroke-opacity="0.5"/>
    <path d="M113.37,46.216 L113.37,334.216" fill-opacity="0" stroke="#000000" stroke-width="0.5" stroke-opacity="0.5"/>
    <path d="M120.57,46.216 L120.57,334.216" fill-opacity="0" stroke="#000000" stroke-width="1" stroke-opacity="0.5"/>
    <path d="M127.77,46.216 L127.77,334.216" fill-opacity="0" stroke="#000000" stroke-width="0.5" stroke-opacity="0.5"/>
    <path d="M134.97,46.216 L134.97,334.216" fill-opacity="0" stroke="#000000" stroke-width="0.5" stroke-opacity="0.5"/>
    <path d="M142.17,46.216 L142.17,334.216" fill-opacity="0" stroke="#000000" stroke-width="0.5" stroke-opacity="0.5"/>
    <path d="M149.37,46.216 L149.37,334.216" fill-opacity="0" stroke="#000000" stroke-width="0.5" stroke-opacity="0.5"/>
    <path d="M156.57,46.216 L156.57,334.216" fill-opacity="0" stroke="#000000" stroke-width="1" stroke-opacity="0.5"/>
    <path d="M163.77,46.216 L163.77,334.216" fill-opacity="0" stroke="#000000" stroke-width="0.5" stroke-opacity="0.5"/>
    <path d="M170.97,46.216 L170.97,334.216" fill-opacity="0" stroke="#000000" stroke-width="0.5" stroke-opacity="0.5"/>
    <path d="M178.17,46.216 L178.17,334.216" fill-opacity="0" stroke="#000000" stroke-width="0.5" stroke-opacity="0.5"/>
    <path d="M185.37,46.216 L185.37,334.216" fill-opacity="0" stroke="#000000" stroke-width="0.5" stroke-opacity="0.5"/>
    <path d="M192.57,46.216 L192.57,334.216" fill-opacity="0" stroke="#000000" stroke-width="1" stroke-opacity="0.5"/>
    <path d="M199.77,46.216 L199.77,334.216" fill-opacity="0" stroke="#000000" stroke-width="0.5" stroke-opacity="0.5"/>
    <path d="M206.97,46.216 L206.97,334.216" fill-opacity="0" stroke="#000000" stroke-width="0.5" stroke-opacity="0.5"/>
    <path d="M214.17,46.216 L214.17,334.216" fill-opacity="0" stroke="#000000" stroke-width="0.5" stroke-opacity="0.5"/>
    <path d="M221.37,46.216 L221.37,334.216" fill-opacity="0" stroke="#000000" stroke-width="0.5" stroke-opacity="0.5"/>
    <path d="M228.57,46.216 L228.57,334.216" fill-opacity="0" stroke="#000000" stroke-width="1" stroke-opacity="0.5"/>
    <path d="M235.77,46.216 L235.77,334.216" fill-opacity="0" stroke="#000000" stroke-width="0.5" stroke-opacity="0.5"/>
    <path d="M242.97,46.216 L242.97,334.216" fill-opacity="0" stroke="#000000" stroke-width="0.5" stroke-opacity="0.5"/>
    <path d="M250.17,46.216 L250.17,334.216" fill-opacity="0" stroke="#000000" stroke-width="0.5" stroke-opacity="0.5"/>
    <path d="M257.37,46.216 L257.37,334.216" fill-opacity="0" stroke="#000000" stroke-width="0.5" stroke-opacity="0.5"/>
    <path d="M264.57,46.216 L264.57,334.216" fill-opacity="0" stroke="#000000" stroke-width="1" stroke-opacity="0.5"/>
    <path d="M271.77,46.216 L271.77,334.216" fill-opacity="0" stroke="#000000" stroke-width="0.5" stroke-opacity="0.5"/>
    <path d="M278.97,46.216 L278.97,334.216" fill-opacity="0" stroke="#000000" stroke-width="0.5" stroke-opacity="0.5"/>
    <path d="M286.17,46.216 L286.17,334.216" fill-opacity="0" stroke="#000000" stroke-width="0.5" stroke-opacity="0.5"/>
    <path d="M293.37,46.216 L293.37,334.216" fill-opacity="0" stroke="#000000" stroke-width="0.5" stroke-opacity="0.5"/>
    <path d="M300.57,46.216 L300.57,334.216" fill-opacity="0" stroke="#000000" stroke-width="1" stroke-opacity="0.5"/>
    <path d="M307.77,46.216 L307.77,334.216" fill-opacity="0" stroke="#000000" stroke-width="0.5" stroke-opacity="0.5"/>
    <path d="M314.97,46.216 L314.97,334.216" fill-opacity="0" stroke="#000000" stroke-width="0.5" stroke-opacity="0.5"/>
    <path d="M322.17,46.216 L322.17,334.216" fill-opacity="0" stroke="#000000" stroke-width="0.5" stroke-opacity="0.5"/>
    <path d="M329.37,46.216 L329.37,334.216" fill-opacity="0" stroke="#000000" stroke-width="0.5" stroke-opacity="0.5"/>
    <path d="M336.57,46.216 L336.57,334.216" fill-opacity="0" stroke="#000000" stroke-width="1" stroke-opacity="0.5"/>
    <path d="M336.57,46.216 L48.57,46.216" fill-opacity="0" stroke="#000000" stroke-width="1" stroke-opacity="0.5"/>
    <path d="M336.57,53.416 L48.57,53.416" fill-opacity="0" stroke="#000000" stroke-width="0.5" stroke-opacity="0.5"/>
    <path d="M336.57,60.616 L48.57,60.616" fill-opacity="0" stroke="#000000" stroke-width="0.5" stroke-opacity="0.5"/>
    <path d="M336.57,67.816 L48.57,67.816" fill-opacity="0" stroke="#000000" stroke-width="0.5" stroke-opacity="0.5"/>
    <path d="M336.57,75.016 L48.57,75.016" fill-opacity="0" stroke="#000000" stroke-width="0.5" stroke-opacity="0.5"/>
    <path d="M336.57,82.216 L48.57,82.216" fill-opacity="0" stroke="#000000" stroke-width="1" stroke-opacity="0.5"/>
    <path d="M336.57,89.416 L48.57,89.416" fill-opacity="0" stroke="#000000" stroke-width="0.5" stroke-opacity="0.5"/>
    <path d="M336.57,96.616 L48.57,96.616" fill-opacity="0" stroke="#000000" stroke-width="0.5" stroke-opacity="0.5"/>
    <path d="M336.57,103.816 L48.57,103.816" fill-opacity="0" stroke="#000000" stroke-width="0.5" stroke-opacity="0.5"/>
    <path d="M336.57,111.016 L48.57,111.016" fill-opacity="0" stroke="#000000" stroke-width="0.5" stroke-opacity="0.5"/>
    <path d="M336.57,118.216 L48.57,118.216" fill-opacity="0" stroke="#000000" stroke-width="1" stroke-opacity="0.5"/>
    <path d="M336.57,125.416 L48.57,125.416" fill-opacity="0" stroke="#000000" stroke-width="0.5" stroke-opacity="0.5"/>
    <path d="M336.57,132.616 L48.57,132.616" fill-opacity="0" stroke="#000000" stroke-width="0.5" stroke-opacity="0.5"/>
    <path d="M336.57,139.816 L48.57,139.816" fill-opacity="0" stroke="#000000" stroke-width="0.5" stroke-opacity="0.5"/>
    <path d="M336.57,147.016 L48.57,147.016" fill-opacity="0" stroke="#000000" stroke-width="0.5" stroke-opacity="0.5"/>
    <path d="M336.57,154.216 L48.57,154.216" fill-opacity="0" stroke="#000000" stroke-width="1" stroke-opacity="0.5"/>
    <path d="M336.57,161.416 L48.57,161.416" fill-opacity="0" stroke="#000000" stroke-width="0.5" stroke-opacity="0.5"/>
    <path d="M336.57,168.616 L48.57,168.616" fill-opacity="0" stroke="#000000" stroke-width="0.5" stroke-opacity="0.5"/>
    <path d="M336.57,175.816 L48.57,175.816" fill-opacity="0" stroke="#000000" stroke-width="0.5" stroke-opacity="0.5"/>
    <path d="M336.57,183.016 L48.57,183.016" fill-opacity="0" stroke="#000000" stroke-width="0.5" stroke-opacity="0.5"/>
    <path d="M336.57,190.216 L48.57,190.216" fill-opacity="0" stroke="#000000" stroke-width="1" stroke-opacity="0.5"/>
    <path d="M336.57,197.416 L48.57,197.416" fill-opacity="0" stroke="#000000" stroke-width="0.5" stroke-opacity="0.5"/>
    <path d="M336.57,204.616 L48.57,204.616" fill-opacity="0" stroke="#000000" stroke-width="0.5" stroke-opacity="0.5"/>
    <path d="M336.57,211.816 L48.57,211.816" fill-opacity="0" stroke="#000000" stroke-width="0.5" stroke-opacity="0.5"/>
    <path d="M336.57,219.016 L48.57,219.016" fill-opacity="0" stroke="#000000" stroke-width="0.5" stroke-opacity="0.5"/>
    <path d="M336.57,226.216 L48.57,226.216" fill-opacity="0" stroke="#000000" stroke-width="1" stroke-opacity="0.5"/>
    <path d="M336.57,233.416 L48.57,233.416" fill-opacity="0" stroke="#000000" stroke-width="0.5" stroke-opacity="0.5"/>
    <path d="M336.57,240.616 L48.57,240.616" fill-opacity="0" stroke="#000000" stroke-width="0.5" stroke-opacity="0.5"/>
    <path d="M336.57,247.816 L48.57,247.816" fill-opacity="0" stroke="#000000" stroke-width="0.5" stroke-opacity="0.5"/>
    <path d="M336.57,255.016 L48.57,255.016" fill-opacity="0" stroke="#000000" stroke-width="0.5" stroke-opacity="0.5"/>
    <path d="M336.57,262.216 L48.57,262.216" fill-opacity="0" stroke="#000000" stroke-width="1" stroke-opacity="0.5"/>
    <path d="M336.57,269.416 L48.57,269.416" fill-opacity="0" stroke="#000000" stroke-width="0.5" stroke-opacity="0.5"/>
    <path d="M336.57,276.616 L48.57,276.616" fill-opacity="0" stroke="#000000" stroke-width="0.5" stroke-opacity="0.5"/>
    <path d="M336.57,283.816 L48.57,283.816" fill-opacity="0" stroke="#000000" stroke-width="0.5" stroke-opacity="0.5"/>
    <path d="M336.57,291.016 L48.57,291.016" fill-opacity="0" stroke="#000000" stroke-width="0.5" stroke-opacity="0.5"/>
    <path d="M336.57,298.216 L48.57,298.216" fill-opacity="0" stroke="#000000" stroke-width="1" stroke-opacity="0.5"/>
    <path d="M336.57,305.416 L48.57,305.416" fill-opacity="0" stroke="#000000" stroke-width="0.5" stroke-opacity="0.5"/>
    <path d="M336.57,312.616 L48.57,312.616" fill-opacity="0" stroke="#000000" stroke-width="0.5" stroke-opacity="0.5"/>
    <path d="M336.57,319.816 L48.57,319.816" fill-opacity="0" stroke="#000000" stroke-width="0.5" stroke-opacity="0.5"/>
    <path d="M336.57,327.016 L48.57,327.016" fill-opacity="0" stroke="#000000" stroke-width="0.5" stroke-opacity="0.5"/>
    <path d="M336.57,334.216 L48.57,334.216" fill-opacity="0" stroke="#000000" stroke-width="1" stroke-opacity="0.5"/>
  </g>
  <g id="graph_labels">
    <text transform="matrix(1, 0, 0, 1, 39.964, 81.716)">
      <tspan x="-5.562" y="3" font-family="ArialMT" font-size="10" fill="#000000">50</tspan>
    </text>
    <text transform="matrix(1, 0, 0, 1, 42.745, 45.716)">
      <tspan x="-2.781" y="3" font-family="ArialMT" font-size="10" fill="#000000">0</tspan>
    </text>
    <text transform="matrix(1, 0, 0, 1, 37.183, 262.506)">
      <tspan x="-8.342" y="3" font-family="ArialMT" font-size="10" fill="#000000">300</tspan>
    </text>
    <text transform="matrix(1, 0, 0, 1, 37.183, 226.506)">
      <tspan x="-8.342" y="3" font-family="ArialMT" font-size="10" fill="#000000">250</tspan>
    </text>
    <text transform="matrix(1, 0, 0, 1, 37.183, 190.506)">
      <tspan x="-8.342" y="3" font-family="ArialMT" font-size="10" fill="#000000">200</tspan>
    </text>
    <text transform="matrix(1, 0, 0, 1, 37.183, 154.506)">
      <tspan x="-8.342" y="3" font-family="ArialMT" font-size="10" fill="#000000">150</tspan>
    </text>
    <text transform="matrix(1, 0, 0, 1, 37.183, 118.916)">
      <tspan x="-8.342" y="3" font-family="ArialMT" font-size="10" fill="#000000">100</tspan>
    </text>
    <text transform="matrix(1, 0, 0, 1, 37.183, 333.716)">
      <tspan x="-8.342" y="3" font-family="ArialMT" font-size="10" fill="#000000">400</tspan>
    </text>
    <text transform="matrix(1, 0, 0, 1, 37.183, 299)">
      <tspan x="-8.342" y="3" font-family="ArialMT" font-size="10" fill="#000000">350</tspan>
    </text>
    <text transform="matrix(1, 0, 0, 1, 86.552, 39.716)">
      <tspan x="-5.562" y="3" font-family="ArialMT" font-size="10" fill="#000000">50</tspan>
    </text>
    <text transform="matrix(1, 0, 0, 1, 50.851, 39.716)">
      <tspan x="-2.781" y="3" font-family="ArialMT" font-size="10" fill="#000000">0</tspan>
    </text>
    <text transform="matrix(1, 0, 0, 1, 264.632, 39.716)">
      <tspan x="-8.342" y="3" font-family="ArialMT" font-size="10" fill="#000000">300</tspan>
    </text>
    <text transform="matrix(1, 0, 0, 1, 228.07, 39.716)">
      <tspan x="-8.342" y="3" font-family="ArialMT" font-size="10" fill="#000000">250</tspan>
    </text>
    <text transform="matrix(1, 0, 0, 1, 192.07, 39.716)">
      <tspan x="-8.342" y="3" font-family="ArialMT" font-size="10" fill="#000000">200</tspan>
    </text>
    <text transform="matrix(1, 0, 0, 1, 156.07, 39.716)">
      <tspan x="-8.342" y="3" font-family="ArialMT" font-size="10" fill="#000000">150</tspan>
    </text>
    <text transform="matrix(1, 0, 0, 1, 118.828, 39.716)">
      <tspan x="-8.342" y="3" font-family="ArialMT" font-size="10" fill="#000000">100</tspan>
    </text>
    <text transform="matrix(1, 0, 0, 1, 336.07, 39.716)">
      <tspan x="-8.342" y="3" font-family="ArialMT" font-size="10" fill="#000000">400</tspan>
    </text>
    <text transform="matrix(1, 0, 0, 1, 301.283, 39.716)">
      <tspan x="-8.342" y="3" font-family="ArialMT" font-size="10" fill="#000000">350</tspan>
    </text>
  </g>
  <g id="Alien">
    <g>
      <path d="M156.228,82.19 L206.728,82.242 L206.691,118.242 L156.191,118.19 L156.228,82.19 z" fill="#19DF3C"/>
      <path d="M156.228,82.19 L206.728,82.242 L206.691,118.242 L156.191,118.19 L156.228,82.19 z" fill-opacity="0" stroke="#000000" stroke-width="1"/>
    </g>
    <g>
      <path d="M149.37,168.616 L190.9,118.242 L200.912,154.216 z" fill="#19DF3C"/>
      <path d="M149.37,168.616 L190.9,118.242 L200.912,154.216 z" fill-opacity="0" stroke="#000000" stroke-width="1"/>
    </g>
    <g>
      <path d="M149.37,182.258 C145.603,182.258 142.549,179.204 142.549,175.437 C142.549,171.67 145.603,168.616 149.37,168.616 C153.137,168.616 156.191,171.67 156.191,175.437 C156.191,179.204 153.137,182.258 149.37,182.258 z" fill="#19DF3C"/>
      <path d="M149.37,182.258 C145.603,182.258 142.549,179.204 142.549,175.437 C142.549,171.67 145.603,168.616 149.37,168.616 C153.137,168.616 156.191,171.67 156.191,175.437 C156.191,179.204 153.137,182.258 149.37,182.258 z" fill-opacity="0" stroke="#000000" stroke-width="1"/>
    </g>
    <g>
      <path d="M199.77,182.258 C192.026,182.258 185.749,175.981 185.749,168.237 C185.749,160.493 192.026,154.216 199.77,154.216 C207.514,154.216 213.791,160.493 213.791,168.237 C213.791,175.981 207.514,182.258 199.77,182.258 z" fill="#19DF3C"/>
      <path d="M199.77,182.258 C192.026,182.258 185.749,175.981 185.749,168.237 C185.749,160.493 192.026,154.216 199.77,154.216 C207.514,154.216 213.791,160.493 213.791,168.237 C213.791,175.981 207.514,182.258 199.77,182.258 z" fill-opacity="0" stroke="#000000" stroke-width="1"/>
    </g>
  </g>
  <g id="Layer_4">
    <g>
      <path d="M224.779,134.194 L204.036,124.663" fill-opacity="0" stroke="#000000" stroke-width="1"/>
      <path d="M205.289,121.937 L196.767,121.323 L202.784,127.389 z" fill="#000000" fill-opacity="1" stroke="#000000" stroke-width="1" stroke-opacity="1"/>
    </g>
    <text transform="matrix(1, 0, 0, 1, 248.591, 130.444)">
      <tspan x="-21.404" y="3" font-family="ArialMT" font-size="10" fill="#000000">(198,100)</tspan>
    </text>
    <g>
      <path d="M245.316,150.338 L212.939,152.381" fill-opacity="0" stroke="#000000" stroke-width="1"/>
      <path d="M212.75,149.386 L204.955,152.884 L213.128,155.375 z" fill="#000000" fill-opacity="1" stroke="#000000" stroke-width="1" stroke-opacity="1"/>
    </g>
    <text transform="matrix(1, 0, 0, 1, 269.978, 146.924)">
      <tspan x="-21.404" y="3" font-family="ArialMT" font-size="10" fill="#000000">(212,150)</tspan>
    </text>
  </g>
</svg>
