<?xml version="1.0" encoding="UTF-8"?>
<!DOCTYPE svg PUBLIC "-//W3C//DTD SVG 1.1//EN" "http://www.w3.org/Graphics/SVG/1.1/DTD/svg11.dtd">
<svg version="1.1" xmlns="http://www.w3.org/2000/svg" xmlns:xlink="http://www.w3.org/1999/xlink" x="0" y="0" width="360" height="360" viewBox="0, 0, 360, 360">
  <g id="graph">
    <path d="M48.57,46.216 L48.57,334.216" fill-opacity="0" stroke="#000000" stroke-width="1" stroke-opacity="0.5"/>
    <path d="M55.77,46.216 L55.77,334.216" fill-opacity="0" stroke="#000000" stroke-width="0.5" stroke-opacity="0.5"/>
    <path d="M62.97,46.216 L62.97,334.216" fill-opacity="0" stroke="#000000" stroke-width="0.5" stroke-opacity="0.5"/>
    <path d="M70.17,46.216 L70.17,334.216" fill-opacity="0" stroke="#000000" stroke-width="0.5" stroke-opacity="0.5"/>
    <path d="M77.37,46.216 L77.37,334.216" fill-opacity="0" stroke="#000000" stroke-width="0.5" stroke-opacity="0.5"/>
    <path d="M84.57,46.216 L84.57,334.216" fill-opacity="0" stroke="#000000" stroke-width="1" stroke-opacity="0.5"/>
    <path d="M91.77,46.216 L91.77,334.216" fill-opacity="0" stroke="#000000" stroke-width="0.5" stroke-opacity="0.5"/>
    <path d="M98.97,46.216 L98.97,334.216" fill-opacity="0" stroke="#000000" stroke-width="0.5" stroke-opacity="0.5"/>
    <path d="M106.17,46.216 L106.17,334.216" fill-opacity="0" stroke="#000000" stroke-width="0.5" stroke-opacity="0.5"/>
    <path d="M113.37,46.216 L113.37,334.216" fill-opacity="0" stroke="#000000" stroke-width="0.5" stroke-opacity="0.5"/>
    <path d="M120.57,46.216 L120.57,334.216" fill-opacity="0" stroke="#000000" stroke-width="1" stroke-opacity="0.5"/>
    <path d="M127.77,46.216 L127.77,334.216" fill-opacity="0" stroke="#000000" stroke-width="0.5" stroke-opacity="0.5"/>
    <path d="M134.97,46.216 L134.97,334.216" fill-opacity="0" stroke="#000000" stroke-width="0.5" stroke-opacity="0.5"/>
    <path d="M142.17,46.216 L142.17,334.216" fill-opacity="0" stroke="#000000" stroke-width="0.5" stroke-opacity="0.5"/>
    <path d="M149.37,46.216 L149.37,334.216" fill-opacity="0" stroke="#000000" stroke-width="0.5" stroke-opacity="0.5"/>
    <path d="M156.57,46.216 L156.57,334.216" fill-opacity="0" stroke="#000000" stroke-width="1" stroke-opacity="0.5"/>
    <path d="M163.77,46.216 L163.77,334.216" fill-opacity="0" stroke="#000000" stroke-width="0.5" stroke-opacity="0.5"/>
    <path d="M170.97,46.216 L170.97,334.216" fill-opacity="0" stroke="#000000" stroke-width="0.5" stroke-opacity="0.5"/>
    <path d="M178.17,46.216 L178.17,334.216" fill-opacity="0" stroke="#000000" stroke-width="0.5" stroke-opacity="0.5"/>
    <path d="M185.37,46.216 L185.37,334.216" fill-opacity="0" stroke="#000000" stroke-width="0.5" stroke-opacity="0.5"/>
    <path d="M192.57,46.216 L192.57,334.216" fill-opacity="0" stroke="#000000" stroke-width="1" stroke-opacity="0.5"/>
    <path d="M199.77,46.216 L199.77,334.216" fill-opacity="0" stroke="#000000" stroke-width="0.5" stroke-opacity="0.5"/>
    <path d="M206.97,46.216 L206.97,334.216" fill-opacity="0" stroke="#000000" stroke-width="0.5" stroke-opacity="0.5"/>
    <path d="M214.17,46.216 L214.17,334.216" fill-opacity="0" stroke="#000000" stroke-width="0.5" stroke-opacity="0.5"/>
    <path d="M221.37,46.216 L221.37,334.216" fill-opacity="0" stroke="#000000" stroke-width="0.5" stroke-opacity="0.5"/>
    <path d="M228.57,46.216 L228.57,334.216" fill-opacity="0" stroke="#000000" stroke-width="1" stroke-opacity="0.5"/>
    <path d="M235.77,46.216 L235.77,334.216" fill-opacity="0" stroke="#000000" stroke-width="0.5" stroke-opacity="0.5"/>
    <path d="M242.97,46.216 L242.97,334.216" fill-opacity="0" stroke="#000000" stroke-width="0.5" stroke-opacity="0.5"/>
    <path d="M250.17,46.216 L250.17,334.216" fill-opacity="0" stroke="#000000" stroke-width="0.5" stroke-opacity="0.5"/>
    <path d="M257.37,46.216 L257.37,334.216" fill-opacity="0" stroke="#000000" stroke-width="0.5" stroke-opacity="0.5"/>
    <path d="M264.57,46.216 L264.57,334.216" fill-opacity="0" stroke="#000000" stroke-width="1" stroke-opacity="0.5"/>
    <path d="M271.77,46.216 L271.77,334.216" fill-opacity="0" stroke="#000000" stroke-width="0.5" stroke-opacity="0.5"/>
    <path d="M278.97,46.216 L278.97,334.216" fill-opacity="0" stroke="#000000" stroke-width="0.5" stroke-opacity="0.5"/>
    <path d="M286.17,46.216 L286.17,334.216" fill-opacity="0" stroke="#000000" stroke-width="0.5" stroke-opacity="0.5"/>
    <path d="M293.37,46.216 L293.37,334.216" fill-opacity="0" stroke="#000000" stroke-width="0.5" stroke-opacity="0.5"/>
    <path d="M300.57,46.216 L300.57,334.216" fill-opacity="0" stroke="#000000" stroke-width="1" stroke-opacity="0.5"/>
    <path d="M307.77,46.216 L307.77,334.216" fill-opacity="0" stroke="#000000" stroke-width="0.5" stroke-opacity="0.5"/>
    <path d="M314.97,46.216 L314.97,334.216" fill-opacity="0" stroke="#000000" stroke-width="0.5" stroke-opacity="0.5"/>
    <path d="M322.17,46.216 L322.17,334.216" fill-opacity="0" stroke="#000000" stroke-width="0.5" stroke-opacity="0.5"/>
    <path d="M329.37,46.216 L329.37,334.216" fill-opacity="0" stroke="#000000" stroke-width="0.5" stroke-opacity="0.5"/>
    <path d="M336.57,46.216 L336.57,334.216" fill-opacity="0" stroke="#000000" stroke-width="1" stroke-opacity="0.5"/>
    <path d="M336.57,46.216 L48.57,46.216" fill-opacity="0" stroke="#000000" stroke-width="1" stroke-opacity="0.5"/>
    <path d="M336.57,53.416 L48.57,53.416" fill-opacity="0" stroke="#000000" stroke-width="0.5" stroke-opacity="0.5"/>
    <path d="M336.57,60.616 L48.57,60.616" fill-opacity="0" stroke="#000000" stroke-width="0.5" stroke-opacity="0.5"/>
    <path d="M336.57,67.816 L48.57,67.816" fill-opacity="0" stroke="#000000" stroke-width="0.5" stroke-opacity="0.5"/>
    <path d="M336.57,75.016 L48.57,75.016" fill-opacity="0" stroke="#000000" stroke-width="0.5" stroke-opacity="0.5"/>
    <path d="M336.57,82.216 L48.57,82.216" fill-opacity="0" stroke="#000000" stroke-width="1" stroke-opacity="0.5"/>
    <path d="M336.57,89.416 L48.57,89.416" fill-opacity="0" stroke="#000000" stroke-width="0.5" stroke-opacity="0.5"/>
    <path d="M336.57,96.616 L48.57,96.616" fill-opacity="0" stroke="#000000" stroke-width="0.5" stroke-opacity="0.5"/>
    <path d="M336.57,103.816 L48.57,103.816" fill-opacity="0" stroke="#000000" stroke-width="0.5" stroke-opacity="0.5"/>
    <path d="M336.57,111.016 L48.57,111.016" fill-opacity="0" stroke="#000000" stroke-width="0.5" stroke-opacity="0.5"/>
    <path d="M336.57,118.216 L48.57,118.216" fill-opacity="0" stroke="#000000" stroke-width="1" stroke-opacity="0.5"/>
    <path d="M336.57,125.416 L48.57,125.416" fill-opacity="0" stroke="#000000" stroke-width="0.5" stroke-opacity="0.5"/>
    <path d="M336.57,132.616 L48.57,132.616" fill-opacity="0" stroke="#000000" stroke-width="0.5" stroke-opacity="0.5"/>
    <path d="M336.57,139.816 L48.57,139.816" fill-opacity="0" stroke="#000000" stroke-width="0.5" stroke-opacity="0.5"/>
    <path d="M336.57,147.016 L48.57,147.016" fill-opacity="0" stroke="#000000" stroke-width="0.5" stroke-opacity="0.5"/>
    <path d="M336.57,154.216 L48.57,154.216" fill-opacity="0" stroke="#000000" stroke-width="1" stroke-opacity="0.5"/>
    <path d="M336.57,161.416 L48.57,161.416" fill-opacity="0" stroke="#000000" stroke-width="0.5" stroke-opacity="0.5"/>
    <path d="M336.57,168.616 L48.57,168.616" fill-opacity="0" stroke="#000000" stroke-width="0.5" stroke-opacity="0.5"/>
    <path d="M336.57,175.816 L48.57,175.816" fill-opacity="0" stroke="#000000" stroke-width="0.5" stroke-opacity="0.5"/>
    <path d="M336.57,183.016 L48.57,183.016" fill-opacity="0" stroke="#000000" stroke-width="0.5" stroke-opacity="0.5"/>
    <path d="M336.57,190.216 L48.57,190.216" fill-opacity="0" stroke="#000000" stroke-width="1" stroke-opacity="0.5"/>
    <path d="M336.57,197.416 L48.57,197.416" fill-opacity="0" stroke="#000000" stroke-width="0.5" stroke-opacity="0.5"/>
    <path d="M336.57,204.616 L48.57,204.616" fill-opacity="0" stroke="#000000" stroke-width="0.5" stroke-opacity="0.5"/>
    <path d="M336.57,211.816 L48.57,211.816" fill-opacity="0" stroke="#000000" stroke-width="0.5" stroke-opacity="0.5"/>
    <path d="M336.57,219.016 L48.57,219.016" fill-opacity="0" stroke="#000000" stroke-width="0.5" stroke-opacity="0.5"/>
    <path d="M336.57,226.216 L48.57,226.216" fill-opacity="0" stroke="#000000" stroke-width="1" stroke-opacity="0.5"/>
    <path d="M336.57,233.416 L48.57,233.416" fill-opacity="0" stroke="#000000" stroke-width="0.5" stroke-opacity="0.5"/>
    <path d="M336.57,240.616 L48.57,240.616" fill-opacity="0" stroke="#000000" stroke-width="0.5" stroke-opacity="0.5"/>
    <path d="M336.57,247.816 L48.57,247.816" fill-opacity="0" stroke="#000000" stroke-width="0.5" stroke-opacity="0.5"/>
    <path d="M336.57,255.016 L48.57,255.016" fill-opacity="0" stroke="#000000" stroke-width="0.5" stroke-opacity="0.5"/>
    <path d="M336.57,262.216 L48.57,262.216" fill-opacity="0" stroke="#000000" stroke-width="1" stroke-opacity="0.5"/>
    <path d="M336.57,269.416 L48.57,269.416" fill-opacity="0" stroke="#000000" stroke-width="0.5" stroke-opacity="0.5"/>
    <path d="M336.57,276.616 L48.57,276.616" fill-opacity="0" stroke="#000000" stroke-width="0.5" stroke-opacity="0.5"/>
    <path d="M336.57,283.816 L48.57,283.816" fill-opacity="0" stroke="#000000" stroke-width="0.5" stroke-opacity="0.5"/>
    <path d="M336.57,291.016 L48.57,291.016" fill-opacity="0" stroke="#000000" stroke-width="0.5" stroke-opacity="0.5"/>
    <path d="M336.57,298.216 L48.57,298.216" fill-opacity="0" stroke="#000000" stroke-width="1" stroke-opacity="0.5"/>
    <path d="M336.57,305.416 L48.57,305.416" fill-opacity="0" stroke="#000000" stroke-width="0.5" stroke-opacity="0.5"/>
    <path d="M336.57,312.616 L48.57,312.616" fill-opacity="0" stroke="#000000" stroke-width="0.5" stroke-opacity="0.5"/>
    <path d="M336.57,319.816 L48.57,319.816" fill-opacity="0" stroke="#000000" stroke-width="0.5" stroke-opacity="0.5"/>
    <path d="M336.57,327.016 L48.57,327.016" fill-opacity="0" stroke="#000000" stroke-width="0.5" stroke-opacity="0.5"/>
    <path d="M336.57,334.216 L48.57,334.216" fill-opacity="0" stroke="#000000" stroke-width="1" stroke-opacity="0.5"/>
  </g>
  <g id="Axis_Labels">
    <text transform="matrix(1, 0, 0, 1, 39.964, 81.716)">
      <tspan x="-5.562" y="3" font-family="ArialMT" font-size="10" fill="#000000">50</tspan>
    </text>
    <text transform="matrix(1, 0, 0, 1, 42.745, 45.716)">
      <tspan x="-2.781" y="3" font-family="ArialMT" font-size="10" fill="#000000">0</tspan>
    </text>
    <text transform="matrix(1, 0, 0, 1, 37.183, 262.506)">
      <tspan x="-8.342" y="3" font-family="ArialMT" font-size="10" fill="#000000">300</tspan>
    </text>
    <text transform="matrix(1, 0, 0, 1, 37.183, 226.506)">
      <tspan x="-8.342" y="3" font-family="ArialMT" font-size="10" fill="#000000">250</tspan>
    </text>
    <text transform="matrix(1, 0, 0, 1, 37.183, 190.506)">
      <tspan x="-8.342" y="3" font-family="ArialMT" font-size="10" fill="#000000">200</tspan>
    </text>
    <text transform="matrix(1, 0, 0, 1, 37.183, 154.506)">
      <tspan x="-8.342" y="3" font-family="ArialMT" font-size="10" fill="#000000">150</tspan>
    </text>
    <text transform="matrix(1, 0, 0, 1, 37.183, 118.916)">
      <tspan x="-8.342" y="3" font-family="ArialMT" font-size="10" fill="#000000">100</tspan>
    </text>
    <text transform="matrix(1, 0, 0, 1, 37.183, 333.716)">
      <tspan x="-8.342" y="3" font-family="ArialMT" font-size="10" fill="#000000">400</tspan>
    </text>
    <text transform="matrix(1, 0, 0, 1, 37.183, 299)">
      <tspan x="-8.342" y="3" font-family="ArialMT" font-size="10" fill="#000000">350</tspan>
    </text>
    <text transform="matrix(1, 0, 0, 1, 86.552, 39.716)">
      <tspan x="-5.562" y="3" font-family="ArialMT" font-size="10" fill="#000000">50</tspan>
    </text>
    <text transform="matrix(1, 0, 0, 1, 50.851, 39.716)">
      <tspan x="-2.781" y="3" font-family="ArialMT" font-size="10" fill="#000000">0</tspan>
    </text>
    <text transform="matrix(1, 0, 0, 1, 264.632, 39.716)">
      <tspan x="-8.342" y="3" font-family="ArialMT" font-size="10" fill="#000000">300</tspan>
    </text>
    <text transform="matrix(1, 0, 0, 1, 228.07, 39.716)">
      <tspan x="-8.342" y="3" font-family="ArialMT" font-size="10" fill="#000000">250</tspan>
    </text>
    <text transform="matrix(1, 0, 0, 1, 192.07, 39.716)">
      <tspan x="-8.342" y="3" font-family="ArialMT" font-size="10" fill="#000000">200</tspan>
    </text>
    <text transform="matrix(1, 0, 0, 1, 156.07, 39.716)">
      <tspan x="-8.342" y="3" font-family="ArialMT" font-size="10" fill="#000000">150</tspan>
    </text>
    <text transform="matrix(1, 0, 0, 1, 118.828, 39.716)">
      <tspan x="-8.342" y="3" font-family="ArialMT" font-size="10" fill="#000000">100</tspan>
    </text>
    <text transform="matrix(1, 0, 0, 1, 336.07, 39.716)">
      <tspan x="-8.342" y="3" font-family="ArialMT" font-size="10" fill="#000000">400</tspan>
    </text>
    <text transform="matrix(1, 0, 0, 1, 301.283, 39.716)">
      <tspan x="-8.342" y="3" font-family="ArialMT" font-size="10" fill="#000000">350</tspan>
    </text>
  </g>
  <g id="Shapes">
    <g>
      <path d="M81.789,79.8 L87.35,79.8 L87.35,84.631 L81.789,84.631 L81.789,79.8 z" fill="#000000"/>
      <path d="M81.789,79.8 L87.35,79.8 L87.35,84.631 L81.789,84.631 L81.789,79.8 z" fill-opacity="0" stroke="#000000" stroke-width="2"/>
    </g>
    <g>
      <path d="M262.314,259.794 L267.875,259.794 L267.875,264.625 L262.314,264.625 L262.314,259.794 z" fill="#000000"/>
      <path d="M262.314,259.794 L267.875,259.794 L267.875,264.625 L262.314,264.625 L262.314,259.794 z" fill-opacity="0" stroke="#000000" stroke-width="2"/>
    </g>
    <path d="M262.314,118.216 L336.57,190.216" fill-opacity="0" stroke="#000000" stroke-width="2"/>
    <path d="M300.018,298.216 L192.57,334.216" fill-opacity="0" stroke="#000000" stroke-width="2"/>
    <path d="M283.604,82.216 C273.715,82.216 265.698,74.199 265.698,64.31 C265.698,54.421 273.715,46.404 283.604,46.404 C293.493,46.404 301.51,54.421 301.51,64.31 C301.51,74.199 293.493,82.216 283.604,82.216 z" fill-opacity="0" stroke="#000000" stroke-width="2"/>
    <path d="M157.408,190.129 C117.612,190.129 85.35,174.031 85.35,154.172 C85.35,134.314 117.612,118.216 157.408,118.216 C197.205,118.216 229.466,134.314 229.466,154.172 C229.466,174.031 197.205,190.129 157.408,190.129 z" fill-opacity="0" stroke="#000000" stroke-width="2"/>
    <path d="M48.57,190.216 L84.57,190.216 L84.57,226.216 L48.57,226.216 L48.57,190.216 z" fill-opacity="0" stroke="#000000" stroke-width="2"/>
    <path d="M229.698,225.794 L300.57,225.794 L300.57,261.794 L229.698,261.794 L229.698,225.794 z" fill-opacity="0" stroke="#000000" stroke-width="2"/>
    <path d="M156.76,226.216 L170.97,276.616" fill-opacity="0" stroke="#000000" stroke-width="2"/>
    <path d="M170.97,276.616 L105.572,298.216" fill-opacity="0" stroke="#000000" stroke-width="2"/>
    <path d="M105.572,298.216 L156.76,226.216" fill-opacity="0" stroke="#000000" stroke-width="2"/>
    <path d="M228.57,60.616 L192.57,82.216" fill-opacity="0" stroke="#000000" stroke-width="2"/>
    <path d="M192.57,82.216 L242.434,96.616" fill-opacity="0" stroke="#000000" stroke-width="2"/>
    <path d="M242.434,96.616 L228.57,60.616" fill-opacity="0" stroke="#000000" stroke-width="2"/>
  </g>
  <g id="Shape_Labels">
    <g>
      <text transform="matrix(1, 0, 0, 1, 74.424, 70.916)">
        <tspan x="-3.753" y="8.339" font-family="ComicNeue-Bold" font-size="24" fill="#FF4437">1</tspan>
      </text>
      <path d="M72.303,66.751 C72.111,66.943 71.991,67.231 71.991,67.519 C71.991,68.143 72.495,68.671 73.143,68.671 C73.431,68.671 73.743,68.575 73.983,68.335 L74.775,67.495 C74.727,71.095 74.655,73.471 74.607,76.951 L73.215,76.951 C72.543,76.951 72.063,77.479 72.063,78.103 C72.063,78.751 72.543,79.255 73.215,79.255 L77.967,79.255 C78.567,79.255 79.119,78.751 79.119,78.103 C79.119,77.479 78.687,76.951 77.919,76.951 L76.935,76.951 L77.103,64.495 C77.103,63.919 76.671,63.343 75.927,63.343 C75.687,63.343 75.303,63.487 75.111,63.703 z" fill-opacity="0" stroke="#000000" stroke-width="0.5"/>
    </g>
    <g>
      <text transform="matrix(1, 0, 0, 1, 274.023, 271.506)">
        <tspan x="-6.648" y="8" font-family="ComicNeue-Bold" font-size="24" fill="#FF4437">2</tspan>
      </text>
      <path d="M270.975,267.434 C271.143,267.242 272.295,265.97 273.855,265.97 C275.175,265.97 276.207,266.762 276.207,267.89 C276.207,269.354 274.935,270.146 273.183,271.298 C271.143,272.594 268.911,274.226 268.911,278.378 L268.911,279.506 L277.551,279.506 C278.151,279.506 278.703,279.002 278.703,278.378 C278.703,277.73 278.151,277.226 277.551,277.226 L271.287,277.226 C271.623,275.138 273.135,274.082 274.623,273.122 C276.471,271.946 278.511,270.578 278.511,267.89 C278.511,265.562 276.591,263.666 273.855,263.666 C271.887,263.666 270.423,264.722 269.583,265.538 C268.983,266.114 268.815,266.402 268.815,266.786 C268.815,267.362 269.271,267.962 269.967,267.962 C270.519,267.962 270.735,267.698 270.975,267.434 z" fill-opacity="0" stroke="#000000" stroke-width="0.5"/>
    </g>
    <g>
      <text transform="matrix(1, 0, 0, 1, 225.53, 308)">
        <tspan x="-6.408" y="8" font-family="ComicNeue-Bold" font-size="24" fill="#FF4437">4</tspan>
      </text>
      <path d="M227.594,316.024 C228.218,316.024 228.77,315.472 228.77,314.872 L228.77,312.424 L228.914,312.424 C229.538,312.424 230.114,311.92 230.114,311.272 C230.114,310.648 229.658,310.12 229.01,310.12 L228.77,310.12 L228.77,301.144 C228.77,300.496 228.266,299.992 227.594,299.992 C227.162,299.992 226.85,300.184 226.634,300.544 L220.562,310.528 C220.442,310.744 220.37,310.936 220.37,311.176 C220.37,311.8 220.754,312.304 221.522,312.304 L226.442,312.376 L226.442,314.872 C226.442,315.472 226.946,316.024 227.594,316.024 z M226.442,305.272 L226.442,310.072 L223.562,310 z" fill-opacity="0" stroke="#000000" stroke-width="0.5"/>
    </g>
    <g>
      <text transform="matrix(1, 0, 0, 1, 316.453, 154.506)">
        <tspan x="-6.828" y="8" font-family="ComicNeue-Bold" font-size="24" fill="#FF4437">3</tspan>
      </text>
      <path d="M313.705,149.57 C314.089,149.282 314.833,148.826 316.033,148.826 C317.593,148.826 318.457,149.618 318.457,150.362 C318.457,151.514 316.969,152.498 315.673,152.498 C315.001,152.498 314.497,153.002 314.497,153.65 C314.497,154.274 315.001,154.802 315.649,154.802 C316.537,154.802 318.793,155.306 318.793,157.61 C318.793,159.482 317.305,160.322 316.009,160.322 C314.377,160.322 313.561,159.242 313.321,158.81 C313.105,158.426 312.793,158.186 312.313,158.186 C311.665,158.186 311.161,158.666 311.161,159.29 C311.161,159.434 311.233,159.746 311.353,160.01 C312.049,161.546 313.993,162.626 316.057,162.626 C318.121,162.626 321.121,161.306 321.121,157.61 C321.121,155.954 320.449,154.466 319.105,153.578 C320.137,152.762 320.761,151.658 320.761,150.362 C320.761,148.178 318.697,146.498 316.033,146.498 C314.665,146.498 313.489,146.978 312.793,147.41 C311.977,147.914 311.809,148.346 311.809,148.73 C311.809,149.282 312.169,149.882 312.961,149.882 C313.273,149.882 313.417,149.762 313.705,149.57 z" fill-opacity="0" stroke="#000000" stroke-width="0.5"/>
    </g>
    <g>
      <text transform="matrix(1, 0, 0, 1, 148.87, 261.116)">
        <tspan x="-12.84" y="8" font-family="ComicNeue-Bold" font-size="24" fill="#FF4437">10</tspan>
      </text>
      <path d="M137.662,256.612 C137.47,256.804 137.35,257.092 137.35,257.38 C137.35,258.004 137.854,258.532 138.502,258.532 C138.79,258.532 139.102,258.436 139.342,258.196 L140.134,257.356 C140.086,260.956 140.014,263.332 139.966,266.812 L138.574,266.812 C137.902,266.812 137.422,267.34 137.422,267.964 C137.422,268.612 137.902,269.116 138.574,269.116 L143.326,269.116 C143.926,269.116 144.478,268.612 144.478,267.964 C144.478,267.34 144.046,266.812 143.278,266.812 L142.294,266.812 L142.462,254.356 C142.462,253.78 142.03,253.204 141.286,253.204 C141.046,253.204 140.662,253.348 140.47,253.564 z M153.454,269.188 C156.742,269.188 159.43,265.276 159.43,260.764 C159.43,256.636 157.15,253.06 153.958,253.06 C150.598,253.06 147.958,257.068 147.958,261.508 C147.958,265.588 150.238,269.188 153.454,269.188 z M153.958,255.364 C155.806,255.364 157.174,257.932 157.174,260.812 C157.174,264.124 155.446,266.884 153.454,266.884 C151.558,266.884 150.238,264.292 150.238,261.46 C150.238,258.124 151.942,255.364 153.958,255.364 z" fill-opacity="0" stroke="#000000" stroke-width="0.5"/>
    </g>
    <g>
      <text transform="matrix(1, 0, 0, 1, 225.53, 78.116)">
        <tspan x="-6.864" y="8" font-family="ComicNeue-Bold" font-size="24" fill="#FF4437">9</tspan>
      </text>
      <path d="M227.978,77.428 C227.522,77.884 226.394,78.7 224.762,78.7 C224.186,78.7 222.29,78.508 222.29,75.988 C222.29,73.012 224.234,72.364 224.978,72.364 C226.394,72.364 228.05,73.012 228.05,76.108 C228.05,76.564 228.05,76.972 227.978,77.428 z M223.058,83.98 C222.674,84.148 222.41,84.532 222.41,85.012 C222.41,85.636 222.89,86.116 223.538,86.116 C223.754,86.116 223.946,86.044 224.162,85.948 C225.194,85.42 230.282,82.804 230.282,76.108 C230.282,71.548 227.57,70.108 224.978,70.108 C223.658,70.108 220.058,71.14 220.058,75.988 C220.058,79.252 222.17,80.956 224.762,80.956 C225.578,80.956 226.298,80.812 226.898,80.596 C226.034,82.036 224.642,83.212 223.058,83.98 z" fill-opacity="0" stroke="#000000" stroke-width="0.5"/>
    </g>
    <g>
      <text transform="matrix(1, 0, 0, 1, 163.27, 146.516)">
        <tspan x="-6.876" y="8" font-family="ComicNeue-Bold" font-size="24" fill="#FF4437">8</tspan>
      </text>
      <path d="M162.946,154.588 C165.826,154.588 167.962,152.548 167.962,149.86 C167.962,148.204 167.146,146.788 165.754,145.804 C166.762,145.108 167.602,144.076 167.602,142.492 C167.602,140.116 165.778,138.46 163.186,138.46 C160.738,138.46 158.626,140.116 158.626,142.852 C158.626,144.388 159.322,145.3 160.33,145.948 C159.13,146.74 157.954,147.988 157.906,150.076 C157.906,152.668 159.994,154.588 162.946,154.588 z M163.186,147.076 C164.458,147.508 165.706,148.444 165.706,149.908 C165.706,151.54 164.218,152.284 162.946,152.284 C161.41,152.284 160.186,151.42 160.186,150.196 C160.186,148.396 161.794,147.7 163.186,147.076 z M163.186,140.788 C164.362,140.788 165.322,141.388 165.322,142.372 C165.322,143.188 164.866,143.908 163.042,144.652 C161.506,144.196 160.882,143.668 160.882,142.756 C160.882,140.812 163.138,140.788 163.186,140.788 z" fill-opacity="0" stroke="#000000" stroke-width="0.5"/>
    </g>
    <g>
      <text transform="matrix(1, 0, 0, 1, 283.104, 63.81)">
        <tspan x="-6.324" y="8" font-family="ComicNeue-Bold" font-size="24" fill="#FF4437">7</tspan>
      </text>
      <path d="M280.5,71.786 C280.884,71.786 281.316,71.618 281.532,71.162 L288.276,57.794 C288.348,57.626 288.396,57.434 288.396,57.29 C288.396,56.642 287.892,56.114 287.244,56.114 L279.396,56.114 C278.748,56.114 278.244,56.666 278.244,57.266 C278.244,57.914 278.748,58.418 279.396,58.418 L285.396,58.418 L279.492,70.13 C279.396,70.298 279.348,70.49 279.348,70.634 C279.348,71.234 279.852,71.786 280.5,71.786 z" fill-opacity="0" stroke="#000000" stroke-width="0.5"/>
    </g>
    <g>
      <text transform="matrix(1, 0, 0, 1, 239.258, 235.506)">
        <tspan x="-6.864" y="8" font-family="ComicNeue-Bold" font-size="24" fill="#FF4437">6</tspan>
      </text>
      <path d="M236.066,236.258 C236.546,235.826 237.65,234.986 239.306,234.986 C239.882,234.986 241.778,235.178 241.778,237.674 C241.778,240.674 239.858,241.322 239.09,241.322 C237.674,241.322 236.018,240.674 236.018,237.578 C236.018,237.146 236.018,236.714 236.066,236.258 z M241.01,229.706 C241.394,229.538 241.658,229.154 241.658,228.674 C241.658,228.05 241.178,227.57 240.554,227.57 C240.314,227.57 240.122,227.642 239.906,227.738 C238.874,228.266 233.786,230.882 233.786,237.578 C233.786,242.138 236.522,243.578 239.09,243.578 C240.41,243.578 244.01,242.546 244.01,237.674 C244.01,234.434 241.898,232.73 239.306,232.73 C238.49,232.73 237.77,232.874 237.17,233.09 C238.034,231.626 239.378,230.474 241.01,229.706 z" fill-opacity="0" stroke="#000000" stroke-width="0.5"/>
    </g>
    <g>
      <text transform="matrix(1, 0, 0, 1, 66.07, 202.916)">
        <tspan x="-7.02" y="8" font-family="ComicNeue-Bold" font-size="24" fill="#FF4437">5</tspan>
      </text>
      <path d="M60.706,208.3 C61.066,209.068 62.746,210.988 65.482,210.988 C68.362,210.988 71.002,208.228 71.002,204.844 C71.002,201.508 68.818,199.3 65.938,199.3 C65.098,199.3 64.33,199.468 63.706,199.732 L63.946,197.476 L69.25,197.476 C69.85,197.476 70.402,196.972 70.402,196.3 C70.402,195.7 69.85,195.148 69.25,195.148 L62.89,195.148 C62.314,195.148 61.786,195.604 61.738,196.18 L61.162,201.916 C61.09,202.636 61.498,203.236 62.314,203.236 C62.65,203.236 62.914,203.14 63.178,202.876 C63.394,202.66 64.378,201.604 65.938,201.604 C67.858,201.604 68.698,203.236 68.698,204.844 C68.698,206.932 67.186,208.66 65.482,208.66 C64.258,208.66 63.394,208.132 62.722,207.172 C62.482,206.836 62.29,206.596 61.738,206.596 C61.138,206.596 60.586,207.148 60.586,207.748 C60.586,207.94 60.634,208.132 60.706,208.3 z" fill-opacity="0" stroke="#000000" stroke-width="0.5"/>
    </g>
  </g>
</svg>
