<?xml version="1.0" encoding="UTF-8"?>
<!DOCTYPE svg PUBLIC "-//W3C//DTD SVG 1.1//EN" "http://www.w3.org/Graphics/SVG/1.1/DTD/svg11.dtd">
<svg version="1.1" xmlns="http://www.w3.org/2000/svg" xmlns:xlink="http://www.w3.org/1999/xlink" x="0" y="0" width="360" height="360" viewBox="0, 0, 360, 360">
  <g id="graph">
    <path d="M48.57,46.216 L48.57,334.216" fill-opacity="0" stroke="#000000" stroke-width="1" stroke-opacity="0.5"/>
    <path d="M55.77,46.216 L55.77,334.216" fill-opacity="0" stroke="#000000" stroke-width="0.5" stroke-opacity="0.5"/>
    <path d="M62.97,46.216 L62.97,334.216" fill-opacity="0" stroke="#000000" stroke-width="0.5" stroke-opacity="0.5"/>
    <path d="M70.17,46.216 L70.17,334.216" fill-opacity="0" stroke="#000000" stroke-width="0.5" stroke-opacity="0.5"/>
    <path d="M77.37,46.216 L77.37,334.216" fill-opacity="0" stroke="#000000" stroke-width="0.5" stroke-opacity="0.5"/>
    <path d="M84.57,46.216 L84.57,334.216" fill-opacity="0" stroke="#000000" stroke-width="1" stroke-opacity="0.5"/>
    <path d="M91.77,46.216 L91.77,334.216" fill-opacity="0" stroke="#000000" stroke-width="0.5" stroke-opacity="0.5"/>
    <path d="M98.97,46.216 L98.97,334.216" fill-opacity="0" stroke="#000000" stroke-width="0.5" stroke-opacity="0.5"/>
    <path d="M106.17,46.216 L106.17,334.216" fill-opacity="0" stroke="#000000" stroke-width="0.5" stroke-opacity="0.5"/>
    <path d="M113.37,46.216 L113.37,334.216" fill-opacity="0" stroke="#000000" stroke-width="0.5" stroke-opacity="0.5"/>
    <path d="M120.57,46.216 L120.57,334.216" fill-opacity="0" stroke="#000000" stroke-width="1" stroke-opacity="0.5"/>
    <path d="M127.77,46.216 L127.77,334.216" fill-opacity="0" stroke="#000000" stroke-width="0.5" stroke-opacity="0.5"/>
    <path d="M134.97,46.216 L134.97,334.216" fill-opacity="0" stroke="#000000" stroke-width="0.5" stroke-opacity="0.5"/>
    <path d="M142.17,46.216 L142.17,334.216" fill-opacity="0" stroke="#000000" stroke-width="0.5" stroke-opacity="0.5"/>
    <path d="M149.37,46.216 L149.37,334.216" fill-opacity="0" stroke="#000000" stroke-width="0.5" stroke-opacity="0.5"/>
    <path d="M156.57,46.216 L156.57,334.216" fill-opacity="0" stroke="#000000" stroke-width="1" stroke-opacity="0.5"/>
    <path d="M163.77,46.216 L163.77,334.216" fill-opacity="0" stroke="#000000" stroke-width="0.5" stroke-opacity="0.5"/>
    <path d="M170.97,46.216 L170.97,334.216" fill-opacity="0" stroke="#000000" stroke-width="0.5" stroke-opacity="0.5"/>
    <path d="M178.17,46.216 L178.17,334.216" fill-opacity="0" stroke="#000000" stroke-width="0.5" stroke-opacity="0.5"/>
    <path d="M185.37,46.216 L185.37,334.216" fill-opacity="0" stroke="#000000" stroke-width="0.5" stroke-opacity="0.5"/>
    <path d="M192.57,46.216 L192.57,334.216" fill-opacity="0" stroke="#000000" stroke-width="1" stroke-opacity="0.5"/>
    <path d="M199.77,46.216 L199.77,334.216" fill-opacity="0" stroke="#000000" stroke-width="0.5" stroke-opacity="0.5"/>
    <path d="M206.97,46.216 L206.97,334.216" fill-opacity="0" stroke="#000000" stroke-width="0.5" stroke-opacity="0.5"/>
    <path d="M214.17,46.216 L214.17,334.216" fill-opacity="0" stroke="#000000" stroke-width="0.5" stroke-opacity="0.5"/>
    <path d="M221.37,46.216 L221.37,334.216" fill-opacity="0" stroke="#000000" stroke-width="0.5" stroke-opacity="0.5"/>
    <path d="M228.57,46.216 L228.57,334.216" fill-opacity="0" stroke="#000000" stroke-width="1" stroke-opacity="0.5"/>
    <path d="M235.77,46.216 L235.77,334.216" fill-opacity="0" stroke="#000000" stroke-width="0.5" stroke-opacity="0.5"/>
    <path d="M242.97,46.216 L242.97,334.216" fill-opacity="0" stroke="#000000" stroke-width="0.5" stroke-opacity="0.5"/>
    <path d="M250.17,46.216 L250.17,334.216" fill-opacity="0" stroke="#000000" stroke-width="0.5" stroke-opacity="0.5"/>
    <path d="M257.37,46.216 L257.37,334.216" fill-opacity="0" stroke="#000000" stroke-width="0.5" stroke-opacity="0.5"/>
    <path d="M264.57,46.216 L264.57,334.216" fill-opacity="0" stroke="#000000" stroke-width="1" stroke-opacity="0.5"/>
    <path d="M271.77,46.216 L271.77,334.216" fill-opacity="0" stroke="#000000" stroke-width="0.5" stroke-opacity="0.5"/>
    <path d="M278.97,46.216 L278.97,334.216" fill-opacity="0" stroke="#000000" stroke-width="0.5" stroke-opacity="0.5"/>
    <path d="M286.17,46.216 L286.17,334.216" fill-opacity="0" stroke="#000000" stroke-width="0.5" stroke-opacity="0.5"/>
    <path d="M293.37,46.216 L293.37,334.216" fill-opacity="0" stroke="#000000" stroke-width="0.5" stroke-opacity="0.5"/>
    <path d="M300.57,46.216 L300.57,334.216" fill-opacity="0" stroke="#000000" stroke-width="1" stroke-opacity="0.5"/>
    <path d="M307.77,46.216 L307.77,334.216" fill-opacity="0" stroke="#000000" stroke-width="0.5" stroke-opacity="0.5"/>
    <path d="M314.97,46.216 L314.97,334.216" fill-opacity="0" stroke="#000000" stroke-width="0.5" stroke-opacity="0.5"/>
    <path d="M322.17,46.216 L322.17,334.216" fill-opacity="0" stroke="#000000" stroke-width="0.5" stroke-opacity="0.5"/>
    <path d="M329.37,46.216 L329.37,334.216" fill-opacity="0" stroke="#000000" stroke-width="0.5" stroke-opacity="0.5"/>
    <path d="M336.57,46.216 L336.57,334.216" fill-opacity="0" stroke="#000000" stroke-width="1" stroke-opacity="0.5"/>
    <path d="M336.57,46.216 L48.57,46.216" fill-opacity="0" stroke="#000000" stroke-width="1" stroke-opacity="0.5"/>
    <path d="M336.57,53.416 L48.57,53.416" fill-opacity="0" stroke="#000000" stroke-width="0.5" stroke-opacity="0.5"/>
    <path d="M336.57,60.616 L48.57,60.616" fill-opacity="0" stroke="#000000" stroke-width="0.5" stroke-opacity="0.5"/>
    <path d="M336.57,67.816 L48.57,67.816" fill-opacity="0" stroke="#000000" stroke-width="0.5" stroke-opacity="0.5"/>
    <path d="M336.57,75.016 L48.57,75.016" fill-opacity="0" stroke="#000000" stroke-width="0.5" stroke-opacity="0.5"/>
    <path d="M336.57,82.216 L48.57,82.216" fill-opacity="0" stroke="#000000" stroke-width="1" stroke-opacity="0.5"/>
    <path d="M336.57,89.416 L48.57,89.416" fill-opacity="0" stroke="#000000" stroke-width="0.5" stroke-opacity="0.5"/>
    <path d="M336.57,96.616 L48.57,96.616" fill-opacity="0" stroke="#000000" stroke-width="0.5" stroke-opacity="0.5"/>
    <path d="M336.57,103.816 L48.57,103.816" fill-opacity="0" stroke="#000000" stroke-width="0.5" stroke-opacity="0.5"/>
    <path d="M336.57,111.016 L48.57,111.016" fill-opacity="0" stroke="#000000" stroke-width="0.5" stroke-opacity="0.5"/>
    <path d="M336.57,118.216 L48.57,118.216" fill-opacity="0" stroke="#000000" stroke-width="1" stroke-opacity="0.5"/>
    <path d="M336.57,125.416 L48.57,125.416" fill-opacity="0" stroke="#000000" stroke-width="0.5" stroke-opacity="0.5"/>
    <path d="M336.57,132.616 L48.57,132.616" fill-opacity="0" stroke="#000000" stroke-width="0.5" stroke-opacity="0.5"/>
    <path d="M336.57,139.816 L48.57,139.816" fill-opacity="0" stroke="#000000" stroke-width="0.5" stroke-opacity="0.5"/>
    <path d="M336.57,147.016 L48.57,147.016" fill-opacity="0" stroke="#000000" stroke-width="0.5" stroke-opacity="0.5"/>
    <path d="M336.57,154.216 L48.57,154.216" fill-opacity="0" stroke="#000000" stroke-width="1" stroke-opacity="0.5"/>
    <path d="M336.57,161.416 L48.57,161.416" fill-opacity="0" stroke="#000000" stroke-width="0.5" stroke-opacity="0.5"/>
    <path d="M336.57,168.616 L48.57,168.616" fill-opacity="0" stroke="#000000" stroke-width="0.5" stroke-opacity="0.5"/>
    <path d="M336.57,175.816 L48.57,175.816" fill-opacity="0" stroke="#000000" stroke-width="0.5" stroke-opacity="0.5"/>
    <path d="M336.57,183.016 L48.57,183.016" fill-opacity="0" stroke="#000000" stroke-width="0.5" stroke-opacity="0.5"/>
    <path d="M336.57,190.216 L48.57,190.216" fill-opacity="0" stroke="#000000" stroke-width="1" stroke-opacity="0.5"/>
    <path d="M336.57,197.416 L48.57,197.416" fill-opacity="0" stroke="#000000" stroke-width="0.5" stroke-opacity="0.5"/>
    <path d="M336.57,204.616 L48.57,204.616" fill-opacity="0" stroke="#000000" stroke-width="0.5" stroke-opacity="0.5"/>
    <path d="M336.57,211.816 L48.57,211.816" fill-opacity="0" stroke="#000000" stroke-width="0.5" stroke-opacity="0.5"/>
    <path d="M336.57,219.016 L48.57,219.016" fill-opacity="0" stroke="#000000" stroke-width="0.5" stroke-opacity="0.5"/>
    <path d="M336.57,226.216 L48.57,226.216" fill-opacity="0" stroke="#000000" stroke-width="1" stroke-opacity="0.5"/>
    <path d="M336.57,233.416 L48.57,233.416" fill-opacity="0" stroke="#000000" stroke-width="0.5" stroke-opacity="0.5"/>
    <path d="M336.57,240.616 L48.57,240.616" fill-opacity="0" stroke="#000000" stroke-width="0.5" stroke-opacity="0.5"/>
    <path d="M336.57,247.816 L48.57,247.816" fill-opacity="0" stroke="#000000" stroke-width="0.5" stroke-opacity="0.5"/>
    <path d="M336.57,255.016 L48.57,255.016" fill-opacity="0" stroke="#000000" stroke-width="0.5" stroke-opacity="0.5"/>
    <path d="M336.57,262.216 L48.57,262.216" fill-opacity="0" stroke="#000000" stroke-width="1" stroke-opacity="0.5"/>
    <path d="M336.57,269.416 L48.57,269.416" fill-opacity="0" stroke="#000000" stroke-width="0.5" stroke-opacity="0.5"/>
    <path d="M336.57,276.616 L48.57,276.616" fill-opacity="0" stroke="#000000" stroke-width="0.5" stroke-opacity="0.5"/>
    <path d="M336.57,283.816 L48.57,283.816" fill-opacity="0" stroke="#000000" stroke-width="0.5" stroke-opacity="0.5"/>
    <path d="M336.57,291.016 L48.57,291.016" fill-opacity="0" stroke="#000000" stroke-width="0.5" stroke-opacity="0.5"/>
    <path d="M336.57,298.216 L48.57,298.216" fill-opacity="0" stroke="#000000" stroke-width="1" stroke-opacity="0.5"/>
    <path d="M336.57,305.416 L48.57,305.416" fill-opacity="0" stroke="#000000" stroke-width="0.5" stroke-opacity="0.5"/>
    <path d="M336.57,312.616 L48.57,312.616" fill-opacity="0" stroke="#000000" stroke-width="0.5" stroke-opacity="0.5"/>
    <path d="M336.57,319.816 L48.57,319.816" fill-opacity="0" stroke="#000000" stroke-width="0.5" stroke-opacity="0.5"/>
    <path d="M336.57,327.016 L48.57,327.016" fill-opacity="0" stroke="#000000" stroke-width="0.5" stroke-opacity="0.5"/>
    <path d="M336.57,334.216 L48.57,334.216" fill-opacity="0" stroke="#000000" stroke-width="1" stroke-opacity="0.5"/>
  </g>
  <g id="labels">
    <text transform="matrix(1, 0, 0, 1, 39.964, 81.716)">
      <tspan x="-5.562" y="3" font-family="ArialMT" font-size="10" fill="#000000">50</tspan>
    </text>
    <text transform="matrix(1, 0, 0, 1, 42.745, 45.716)">
      <tspan x="-2.781" y="3" font-family="ArialMT" font-size="10" fill="#000000">0</tspan>
    </text>
    <text transform="matrix(1, 0, 0, 1, 37.183, 262.506)">
      <tspan x="-8.342" y="3" font-family="ArialMT" font-size="10" fill="#000000">300</tspan>
    </text>
    <text transform="matrix(1, 0, 0, 1, 37.183, 226.506)">
      <tspan x="-8.342" y="3" font-family="ArialMT" font-size="10" fill="#000000">250</tspan>
    </text>
    <text transform="matrix(1, 0, 0, 1, 37.183, 190.506)">
      <tspan x="-8.342" y="3" font-family="ArialMT" font-size="10" fill="#000000">200</tspan>
    </text>
    <text transform="matrix(1, 0, 0, 1, 37.183, 154.506)">
      <tspan x="-8.342" y="3" font-family="ArialMT" font-size="10" fill="#000000">150</tspan>
    </text>
    <text transform="matrix(1, 0, 0, 1, 37.183, 118.916)">
      <tspan x="-8.342" y="3" font-family="ArialMT" font-size="10" fill="#000000">100</tspan>
    </text>
    <text transform="matrix(1, 0, 0, 1, 37.183, 333.716)">
      <tspan x="-8.342" y="3" font-family="ArialMT" font-size="10" fill="#000000">400</tspan>
    </text>
    <text transform="matrix(1, 0, 0, 1, 37.183, 299)">
      <tspan x="-8.342" y="3" font-family="ArialMT" font-size="10" fill="#000000">350</tspan>
    </text>
    <text transform="matrix(1, 0, 0, 1, 86.552, 39.716)">
      <tspan x="-5.562" y="3" font-family="ArialMT" font-size="10" fill="#000000">50</tspan>
    </text>
    <text transform="matrix(1, 0, 0, 1, 50.851, 39.716)">
      <tspan x="-2.781" y="3" font-family="ArialMT" font-size="10" fill="#000000">0</tspan>
    </text>
    <text transform="matrix(1, 0, 0, 1, 264.632, 39.716)">
      <tspan x="-8.342" y="3" font-family="ArialMT" font-size="10" fill="#000000">300</tspan>
    </text>
    <text transform="matrix(1, 0, 0, 1, 228.07, 39.716)">
      <tspan x="-8.342" y="3" font-family="ArialMT" font-size="10" fill="#000000">250</tspan>
    </text>
    <text transform="matrix(1, 0, 0, 1, 192.07, 39.716)">
      <tspan x="-8.342" y="3" font-family="ArialMT" font-size="10" fill="#000000">200</tspan>
    </text>
    <text transform="matrix(1, 0, 0, 1, 156.07, 39.716)">
      <tspan x="-8.342" y="3" font-family="ArialMT" font-size="10" fill="#000000">150</tspan>
    </text>
    <text transform="matrix(1, 0, 0, 1, 118.828, 39.716)">
      <tspan x="-8.342" y="3" font-family="ArialMT" font-size="10" fill="#000000">100</tspan>
    </text>
    <text transform="matrix(1, 0, 0, 1, 336.07, 39.716)">
      <tspan x="-8.342" y="3" font-family="ArialMT" font-size="10" fill="#000000">400</tspan>
    </text>
    <text transform="matrix(1, 0, 0, 1, 301.283, 39.716)">
      <tspan x="-8.342" y="3" font-family="ArialMT" font-size="10" fill="#000000">350</tspan>
    </text>
  </g>
  <g id="Layer_3">
    <g>
      <path d="M81.789,79.8 L87.35,79.8 L87.35,84.631 L81.789,84.631 L81.789,79.8 z" fill="#000000"/>
      <path d="M81.789,79.8 L87.35,79.8 L87.35,84.631 L81.789,84.631 L81.789,79.8 z" fill-opacity="0" stroke="#000000" stroke-width="2"/>
    </g>
    <g>
      <path d="M262.314,259.794 L267.875,259.794 L267.875,264.625 L262.314,264.625 L262.314,259.794 z" fill="#000000"/>
      <path d="M262.314,259.794 L267.875,259.794 L267.875,264.625 L262.314,264.625 L262.314,259.794 z" fill-opacity="0" stroke="#000000" stroke-width="2"/>
    </g>
    <path d="M262.314,118.216 L336.57,190.216" fill-opacity="0" stroke="#000000" stroke-width="2"/>
    <path d="M300.018,298.216 L192.57,334.216" fill-opacity="0" stroke="#000000" stroke-width="2"/>
    <path d="M283.604,82.216 C273.715,82.216 265.698,74.199 265.698,64.31 C265.698,54.421 273.715,46.404 283.604,46.404 C293.493,46.404 301.51,54.421 301.51,64.31 C301.51,74.199 293.493,82.216 283.604,82.216 z" fill-opacity="0" stroke="#000000" stroke-width="2"/>
    <path d="M157.408,190.129 C117.612,190.129 85.35,174.031 85.35,154.172 C85.35,134.314 117.612,118.216 157.408,118.216 C197.205,118.216 229.466,134.314 229.466,154.172 C229.466,174.031 197.205,190.129 157.408,190.129 z" fill-opacity="0" stroke="#000000" stroke-width="2"/>
    <path d="M48.57,190.216 L84.57,190.216 L84.57,226.216 L48.57,226.216 L48.57,190.216 z" fill-opacity="0" stroke="#000000" stroke-width="2"/>
    <path d="M229.698,225.794 L300.57,225.794 L300.57,261.794 L229.698,261.794 L229.698,225.794 z" fill-opacity="0" stroke="#000000" stroke-width="2"/>
    <path d="M156.76,226.216 L170.97,276.616" fill-opacity="0" stroke="#000000" stroke-width="2"/>
    <path d="M170.97,276.616 L105.572,298.216" fill-opacity="0" stroke="#000000" stroke-width="2"/>
    <path d="M105.572,298.216 L156.76,226.216" fill-opacity="0" stroke="#000000" stroke-width="2"/>
    <path d="M228.57,60.616 L192.57,82.216" fill-opacity="0" stroke="#000000" stroke-width="2"/>
    <path d="M192.57,82.216 L242.434,96.616" fill-opacity="0" stroke="#000000" stroke-width="2"/>
    <path d="M242.434,96.616 L228.57,60.616" fill-opacity="0" stroke="#000000" stroke-width="2"/>
  </g>
</svg>
